<?xml version="1.0" encoding="iso-8859-1"?>
<!-- Uploaded to: SVG Repo, www.svgrepo.com, Generator: SVG Repo Mixer Tools -->
<svg version="1.1" id="Layer_1" xmlns="http://www.w3.org/2000/svg" xmlns:xlink="http://www.w3.org/1999/xlink" 
	 viewBox="0 0 512 512" xml:space="preserve">
<polygon style="fill:#F9F0B5;" points="503.83,412.524 256,330.12 8.17,412.524 8.17,445.205 503.83,445.205 "/>
<polygon style="fill:#C2D280;" points="503.83,379.843 256,297.439 8.17,379.843 8.17,412.524 503.83,412.524 "/>
<rect x="8.17" y="66.8" style="fill:#58AB5B;" width="495.66" height="313.05"/>
<path style="fill:#84C688;" d="M419.472,99.476H92.528c0,28.541-23.137,51.677-51.677,51.677v144.332
	c28.54,0,51.677,23.137,51.677,51.677h326.944c0-28.54,23.137-51.677,51.677-51.677V151.153
	C442.609,151.153,419.472,128.016,419.472,99.476z"/>
<circle style="fill:#58AB5B;" cx="256" cy="223.319" r="91.158"/>
<path style="fill:#84C688;" d="M306.332,206.603c0-14.834-12.025-26.858-26.858-26.858c-10.098,0-18.887,5.576-23.474,13.815
	c-4.586-8.239-13.375-13.815-23.474-13.815c-14.834,0-26.858,12.024-26.858,26.858c0,6.081,2.022,11.688,5.428,16.19L256,282.145
	l44.903-59.352C304.31,218.291,306.332,212.684,306.332,206.603z"/>
<g>
	<path style="fill:#1D2328;" d="M503.83,437.034H8.17c-4.512,0-8.17,3.658-8.17,8.17c0,4.512,3.658,8.17,8.17,8.17h495.66
		c4.512,0,8.17-3.658,8.17-8.17C512,440.693,508.342,437.034,503.83,437.034z"/>
	<path style="fill:#1D2328;" d="M503.83,404.354H8.17c-4.512,0-8.17,3.658-8.17,8.17c0,4.512,3.658,8.17,8.17,8.17h495.66
		c4.512,0,8.17-3.658,8.17-8.17C512,408.012,508.342,404.354,503.83,404.354z"/>
	<path style="fill:#1D2328;" d="M503.83,58.625H8.17c-4.512,0-8.17,3.658-8.17,8.17v313.048c0,4.512,3.658,8.17,8.17,8.17h495.66
		c4.512,0,8.17-3.658,8.17-8.17V66.795C512,62.283,508.342,58.625,503.83,58.625z M495.66,371.673H16.34V74.966H495.66V371.673z"/>
	<path style="fill:#1D2328;" d="M40.851,303.655c23.99,0,43.507,19.517,43.507,43.507c0,4.512,3.658,8.17,8.17,8.17h326.944
		c4.512,0,8.17-3.658,8.17-8.17c0-23.99,19.517-43.507,43.507-43.507c4.512,0,8.17-3.658,8.17-8.17V151.153
		c0-4.512-3.658-8.17-8.17-8.17c-23.99,0-43.508-19.517-43.508-43.507c0-4.512-3.658-8.17-8.17-8.17H386.79
		c-4.512,0-8.17,3.658-8.17,8.17c0,4.512,3.658,8.17,8.17,8.17h25.066c3.631,26.476,24.646,47.491,51.122,51.122V287.87
		c-26.476,3.631-47.491,24.646-51.122,51.122H100.143c-3.63-26.476-24.646-47.491-51.122-51.122V158.768
		c26.476-3.631,47.491-24.646,51.122-51.122h253.966c4.512,0,8.17-3.658,8.17-8.17c0-4.512-3.658-8.17-8.17-8.17H92.528
		c-4.512,0-8.17,3.658-8.17,8.17c0,23.99-19.517,43.507-43.507,43.507c-4.512,0-8.17,3.658-8.17,8.17v144.332
		C32.681,299.997,36.339,303.655,40.851,303.655z"/>
	<path style="fill:#1D2328;" d="M256,123.987c-54.772,0-99.332,44.56-99.332,99.332s44.56,99.332,99.332,99.332
		s99.332-44.56,99.332-99.332S310.772,123.987,256,123.987z M256,306.311c-45.762,0-82.992-37.23-82.992-82.992
		s37.23-82.992,82.992-82.992s82.992,37.23,82.992,82.992S301.762,306.311,256,306.311z"/>
	<path style="fill:#1D2328;" d="M279.474,171.574c-8.797,0-17.128,3.312-23.474,9.04c-6.346-5.729-14.677-9.04-23.474-9.04
		c-19.314,0-35.028,15.714-35.028,35.028c0,7.692,2.45,14.995,7.083,21.119l44.903,59.352c1.544,2.041,3.955,3.241,6.515,3.241
		c2.56,0,4.971-1.199,6.515-3.241l44.903-59.351c4.633-6.124,7.083-13.427,7.083-21.119
		C314.502,187.289,298.788,171.574,279.474,171.574z M294.388,217.864L256,268.603l-38.388-50.74
		c-2.469-3.263-3.774-7.156-3.774-11.26c0-10.304,8.384-18.688,18.688-18.688c6.774,0,13.032,3.685,16.335,9.618
		c1.442,2.59,4.173,4.197,7.139,4.197s5.696-1.606,7.139-4.197c3.302-5.933,9.561-9.618,16.335-9.618
		c10.304,0,18.688,8.384,18.688,18.688C298.162,210.708,296.857,214.601,294.388,217.864z"/>
</g>
</svg>