<?xml version="1.0" encoding="iso-8859-1"?>
<!-- Uploaded to: SVG Repo, www.svgrepo.com, Generator: SVG Repo Mixer Tools -->
<svg height="800px" width="800px" version="1.1" id="Layer_1" xmlns="http://www.w3.org/2000/svg" xmlns:xlink="http://www.w3.org/1999/xlink" 
	 viewBox="0 0 512.427 512.427" xml:space="preserve">
<g transform="translate(1 1)">
	<g>
		<path style="fill:#FFE100;" d="M67.693,366.68c-5.12,0-8.533-3.413-8.533-8.533V264.28c0-5.12,3.413-8.533,8.533-8.533
			s8.533,3.413,8.533,8.533v93.867C76.227,363.267,72.813,366.68,67.693,366.68z"/>
		<path style="fill:#FFE100;" d="M460.227,366.68c-5.12,0-8.533-3.413-8.533-8.533V264.28c0-5.12,3.413-8.533,8.533-8.533
			s8.533,3.413,8.533,8.533v93.867C468.76,363.267,465.347,366.68,460.227,366.68z"/>
		<path style="fill:#FFE100;" d="M263.96,443.48c-5.12,0-8.533-3.413-8.533-8.533V341.08c0-5.12,3.413-8.533,8.533-8.533
			c5.12,0,8.533,3.413,8.533,8.533v93.867C272.493,440.067,269.08,443.48,263.96,443.48z"/>
		<path style="fill:#FFE100;" d="M144.493,486.147c-5.12,0-8.533-3.413-8.533-8.533v-51.2c0-5.12,3.413-8.533,8.533-8.533
			c5.12,0,8.533,3.413,8.533,8.533v51.2C153.027,482.733,149.613,486.147,144.493,486.147z"/>
		<path style="fill:#FFE100;" d="M383.427,486.147c-5.12,0-8.533-3.413-8.533-8.533v-51.2c0-5.12,3.413-8.533,8.533-8.533
			c5.12,0,8.533,3.413,8.533,8.533v51.2C391.96,482.733,388.547,486.147,383.427,486.147z"/>
	</g>
	<g>
		<path style="fill:#00DA6C;" d="M110.36,213.08c0,28.16-23.04,51.2-51.2,51.2s-51.2-23.04-51.2-51.2s23.04-51.2,51.2-51.2
			S110.36,184.92,110.36,213.08"/>
		<path style="fill:#00DA6C;" d="M502.893,213.08c0,28.16-23.04,51.2-51.2,51.2s-51.2-23.04-51.2-51.2s23.04-51.2,51.2-51.2
			S502.893,184.92,502.893,213.08"/>
	</g>
	<path style="fill:#00AD55;" d="M451.693,161.88c-2.56,0-5.973,0-8.533,0.853c23.893,4.267,42.667,24.747,42.667,50.347
		s-18.773,46.08-42.667,50.347c2.56,0.853,5.973,0.853,8.533,0.853c28.16,0,51.2-23.04,51.2-51.2S479.853,161.88,451.693,161.88"/>
	<path style="fill:#FFFFFF;" d="M59.16,161.88c2.56,0,5.973,0,8.533,0.853C43.8,167,25.027,187.48,25.027,213.08
		s18.773,46.08,42.667,50.347c-2.56,0.853-5.973,0.853-8.533,0.853c-28.16,0-51.2-23.04-51.2-51.2S31,161.88,59.16,161.88"/>
	<g>
		<path style="fill:#00DA6C;" d="M306.627,289.88c0,28.16-23.04,51.2-51.2,51.2s-51.2-23.04-51.2-51.2c0-28.16,23.04-51.2,51.2-51.2
			S306.627,261.72,306.627,289.88"/>
		<path style="fill:#00DA6C;" d="M170.093,392.28c0,18.773-15.36,34.133-34.133,34.133s-34.133-15.36-34.133-34.133
			c0-18.773,15.36-34.133,34.133-34.133S170.093,373.507,170.093,392.28"/>
		<path style="fill:#00DA6C;" d="M409.027,392.28c0,18.773-15.36,34.133-34.133,34.133c-18.773,0-34.133-15.36-34.133-34.133
			c0-18.773,15.36-34.133,34.133-34.133C393.667,358.147,409.027,373.507,409.027,392.28"/>
	</g>
	<g>
		<path style="fill:#FFE100;" d="M135.96,33.88L71.107,163.587c22.187,5.12,39.253,25.6,39.253,49.493c0,28.16-23.04,51.2-51.2,51.2
			c-11.947,0-23.893-4.267-32.427-11.947L7.96,289.88h153.6l51.2-102.4L135.96,33.88z"/>
		<path style="fill:#FFE100;" d="M451.693,264.28c-28.16,0-51.2-23.04-51.2-51.2c0-23.893,17.067-44.373,39.253-49.493
			L374.893,33.88l-76.8,153.6l51.2,102.4h153.6l-18.773-37.547C475.587,260.013,463.64,264.28,451.693,264.28"/>
		<path style="fill:#FFE100;" d="M255.427,102.147L161.56,289.88h42.667c0-28.16,23.04-51.2,51.2-51.2s51.2,23.04,51.2,51.2h42.667
			L255.427,102.147z"/>
	</g>
	<g>
		<polygon style="fill:#FDCC00;" points="107.8,90.2 135.96,161.88 164.12,90.2 135.96,33.88 		"/>
		<polygon style="fill:#FDCC00;" points="346.733,90.2 374.893,161.88 403.053,90.2 374.893,33.88 		"/>
		<polygon style="fill:#FDCC00;" points="255.427,204.547 287,165.293 255.427,102.147 223.853,165.293 		"/>
	</g>
	<path d="M135.96,170.413L135.96,170.413c-3.413,0-6.827-2.56-7.68-5.12l-28.16-71.68c-0.853-2.56-0.853-5.12,0-6.827l28.16-56.32
		c2.56-5.973,12.8-5.973,15.36,0l28.16,56.32c0.853,2.56,0.853,4.267,0,6.827l-28.16,71.68
		C142.787,167.853,139.373,170.413,135.96,170.413z M117.187,90.2l18.773,47.787L154.733,90.2L135.96,52.653L117.187,90.2z"/>
	<path d="M374.893,170.413c-3.413,0-6.827-2.56-7.68-5.12l-28.16-71.68c-0.853-2.56-0.853-5.12,0-6.827l28.16-56.32
		c2.56-5.973,11.947-5.973,15.36,0l28.16,56.32c0.853,2.56,0.853,4.267,0,6.827l-28.16,71.68
		C381.72,167.853,378.307,170.413,374.893,170.413z M356.12,90.2l18.773,47.787L393.667,90.2l-18.773-37.547L356.12,90.2z"/>
	<path d="M255.427,213.08L255.427,213.08c-2.56,0-5.12-0.853-6.827-3.413l-31.573-39.253c-1.707-2.56-2.56-5.973-0.853-9.387
		l31.573-63.147c2.56-5.973,12.8-5.973,15.36,0l31.573,63.147c1.707,2.56,0.853,6.827-0.853,9.387l-31.573,39.253
		C260.547,212.227,257.987,213.08,255.427,213.08z M234.093,164.44l21.333,26.453l21.333-26.453l-21.333-42.667L234.093,164.44z"/>
	<path d="M59.16,366.68c-5.12,0-8.533-3.413-8.533-8.533V264.28c0-5.12,3.413-8.533,8.533-8.533s8.533,3.413,8.533,8.533v93.867
		C67.693,363.267,64.28,366.68,59.16,366.68z"/>
	<path d="M59.16,272.813c-33.28,0-59.733-26.453-59.733-59.733s26.453-59.733,59.733-59.733s59.733,26.453,59.733,59.733
		S92.44,272.813,59.16,272.813z M59.16,170.413c-23.893,0-42.667,18.773-42.667,42.667s18.773,42.667,42.667,42.667
		s42.667-18.773,42.667-42.667S83.053,170.413,59.16,170.413z"/>
	<path d="M451.693,366.68c-5.12,0-8.533-3.413-8.533-8.533V264.28c0-5.12,3.413-8.533,8.533-8.533s8.533,3.413,8.533,8.533v93.867
		C460.227,363.267,456.813,366.68,451.693,366.68z"/>
	<path d="M451.693,272.813c-33.28,0-59.733-26.453-59.733-59.733s26.453-59.733,59.733-59.733s59.733,26.453,59.733,59.733
		S484.973,272.813,451.693,272.813z M451.693,170.413c-23.893,0-42.667,18.773-42.667,42.667s18.773,42.667,42.667,42.667
		c23.893,0,42.667-18.773,42.667-42.667S475.587,170.413,451.693,170.413z"/>
	<path d="M255.427,443.48c-5.12,0-8.533-3.413-8.533-8.533V341.08c0-5.12,3.413-8.533,8.533-8.533s8.533,3.413,8.533,8.533v93.867
		C263.96,440.067,260.547,443.48,255.427,443.48z"/>
	<path d="M255.427,349.613c-33.28,0-59.733-26.453-59.733-59.733s26.453-59.733,59.733-59.733S315.16,256.6,315.16,289.88
		S288.707,349.613,255.427,349.613z M255.427,247.213c-23.893,0-42.667,18.773-42.667,42.667c0,23.893,18.773,42.667,42.667,42.667
		s42.667-18.773,42.667-42.667C298.093,265.987,279.32,247.213,255.427,247.213z"/>
	<path d="M135.96,486.147c-5.12,0-8.533-3.413-8.533-8.533v-51.2c0-5.12,3.413-8.533,8.533-8.533s8.533,3.413,8.533,8.533v51.2
		C144.493,482.733,141.08,486.147,135.96,486.147z"/>
	<path d="M135.96,434.947c-23.893,0-42.667-18.773-42.667-42.667c0-23.893,18.773-42.667,42.667-42.667s42.667,18.773,42.667,42.667
		C178.627,416.173,159.853,434.947,135.96,434.947z M135.96,366.68c-14.507,0-25.6,11.093-25.6,25.6c0,14.507,11.093,25.6,25.6,25.6
		s25.6-11.093,25.6-25.6C161.56,377.773,150.467,366.68,135.96,366.68z"/>
	<path d="M374.893,486.147c-5.12,0-8.533-3.413-8.533-8.533v-51.2c0-5.12,3.413-8.533,8.533-8.533c5.12,0,8.533,3.413,8.533,8.533
		v51.2C383.427,482.733,380.013,486.147,374.893,486.147z"/>
	<path d="M374.893,434.947c-23.893,0-42.667-18.773-42.667-42.667c0-23.893,18.773-42.667,42.667-42.667
		c23.893,0,42.667,18.773,42.667,42.667C417.56,416.173,398.787,434.947,374.893,434.947z M374.893,366.68
		c-14.507,0-25.6,11.093-25.6,25.6c0,14.507,11.093,25.6,25.6,25.6c14.507,0,25.6-11.093,25.6-25.6
		C400.493,377.773,389.4,366.68,374.893,366.68z"/>
	<path d="M161.56,298.413H7.96c-2.56,0-5.973-1.707-7.68-4.267c-1.707-2.56-1.707-5.973,0-8.533l18.773-37.547
		c0.853-2.56,3.413-4.267,5.973-4.267c2.56-0.853,5.12,0,6.827,1.707c7.68,6.827,17.067,10.24,27.307,10.24
		c23.893,0,42.667-18.773,42.667-42.667c0-19.627-13.653-36.693-32.427-41.813c-2.56-0.853-4.267-2.56-5.973-5.12
		c-1.707-2.56-0.853-5.12,0-7.68L128.28,28.76c2.56-5.973,12.8-5.973,15.36,0l76.8,153.6c0.853,2.56,0.853,5.12,0,7.68l-51.2,102.4
		C167.533,296.707,164.973,298.413,161.56,298.413z M21.613,281.347H156.44l46.933-93.867L135.96,52.653L83.053,158.467
		c21.333,9.387,35.84,30.72,35.84,54.613c0,33.28-26.453,59.733-59.733,59.733c-10.24,0-20.48-2.56-29.013-7.68L21.613,281.347z"/>
	<path d="M502.893,298.413L502.893,298.413h-153.6c-3.413,0-5.973-1.707-7.68-5.12l-51.2-102.4c-0.853-2.56-0.853-5.12,0-7.68
		l76.8-153.6c2.56-5.973,11.947-5.973,15.36,0l64.853,129.707c0.853,2.56,0.853,5.12,0,7.68c-0.853,2.56-3.413,4.267-5.973,5.12
		c-18.773,4.267-32.427,21.333-32.427,40.96c0,23.893,18.773,42.667,42.667,42.667c10.24,0,19.627-3.413,27.307-9.387
		c1.707-1.707,4.267-2.56,6.827-1.707c2.56,0.853,5.12,2.56,5.973,4.267l17.92,35.84c0.853,1.707,1.707,3.413,1.707,5.12
		C511.427,295,508.013,298.413,502.893,298.413z M354.413,281.347H489.24l-7.68-16.213c-8.533,5.12-18.773,7.68-29.013,7.68
		c-33.28,0-59.733-26.453-59.733-59.733c0-23.893,14.507-45.227,35.84-54.613l-53.76-105.813L307.48,187.48L354.413,281.347z"/>
	<path d="M349.293,298.413h-42.667c-5.12,0-8.533-3.413-8.533-8.533c0-23.893-18.773-42.667-42.667-42.667
		s-42.667,18.773-42.667,42.667c0,5.12-3.413,8.533-8.533,8.533H161.56c-2.56,0-5.973-1.707-7.68-4.267
		c-1.707-2.56-1.707-5.973,0-8.533L247.747,97.88c2.56-5.973,12.8-5.973,15.36,0l93.867,187.733c1.707,2.56,0.853,5.973,0,8.533
		C356.12,296.707,351.853,298.413,349.293,298.413z M314.307,281.347h21.333L255.427,120.92l-80.213,160.427h21.333
		c4.267-29.013,29.013-51.2,58.88-51.2S310.04,252.333,314.307,281.347z"/>
</g>
</svg>