<svg xmlns="http://www.w3.org/2000/svg" xmlns:xlink="http://www.w3.org/1999/xlink" width="685" zoomAndPan="magnify" viewBox="0 0 513.75 247.499998" height="330" preserveAspectRatio="xMidYMid meet" version="1.0"><defs><g/><clipPath id="199140ecd9"><path d="M 0.394531 0 L 512.359375 0 L 512.359375 119.757812 L 0.394531 119.757812 Z M 0.394531 0 " clip-rule="nonzero"/></clipPath></defs><g clip-path="url(#199140ecd9)"><path fill="#ffffff" d="M 1.082031 160.78125 L 513.238281 160.78125 L 513.238281 165.613281 L 1.082031 165.613281 Z M 155.289062 17.335938 L 153.300781 16.027344 L 151.265625 17.335938 L 72.851562 70.101562 L 73.8125 70.101562 L 72.804688 70.148438 L 72.851562 70.101562 L 0.484375 77.386719 L 73.828125 76.558594 L 74.789062 76.558594 L 75.617188 76.027344 L 153.300781 24.667969 L 169.726562 35.398438 L 179.675781 41.820312 L 185.46875 37.996094 Z M 513.835938 77.386719 L 440.488281 76.375 L 439.613281 76.425781 L 438.785156 75.894531 L 361.050781 24.105469 L 334.476562 41.738281 L 328.964844 38.113281 L 359.363281 17.863281 L 361.050781 16.707031 L 362.742188 17.863281 L 441.449219 70.332031 Z M 441.699219 70.679688 L 442.179688 70.828125 L 442.128906 70.777344 Z M 321.628906 42.980469 L 308.105469 33.972656 L 308.105469 15.117188 L 297.640625 15.117188 L 297.640625 27.019531 L 293.816406 24.453125 L 257.144531 0 L 220.488281 24.4375 L 192.707031 42.980469 L 187.160156 46.640625 L 147.140625 73.328125 L 165.355469 73.328125 L 257.144531 12.136719 L 348.933594 73.328125 L 367.144531 73.328125 L 327.144531 46.640625 Z M 321.628906 42.980469 " fill-opacity="1" fill-rule="nonzero"/></g><g fill="#ffffff" fill-opacity="1"><g transform="translate(51.166356, 185.010003)"><g><path d="M 18.992188 -39.992188 C 18.992188 -47.53125 19.09375 -53.359375 23.113281 -58.785156 C 25.222656 -61.597656 29.242188 -64.714844 34.96875 -64.714844 C 41.5 -64.714844 48.132812 -60.390625 51.148438 -52.957031 L 51.148438 -24.417969 C 51.148438 -14.769531 49.539062 -9.847656 46.425781 -6.332031 C 43.511719 -3.015625 39.792969 -1.105469 35.070312 -1.105469 C 29.945312 -1.105469 25.722656 -3.417969 23.113281 -7.035156 C 19.996094 -11.253906 18.992188 -15.777344 18.992188 -25.222656 Z M 63.105469 -90.335938 L 70.039062 -90.335938 L 70.039062 -92.445312 L 51.148438 -92.445312 L 51.148438 -57.476562 C 48.03125 -62.804688 41.601562 -66.824219 34.464844 -66.824219 C 26.628906 -66.824219 19.09375 -63.105469 14.269531 -57.679688 C 9.445312 -52.253906 7.035156 -45.320312 7.035156 -36.578125 L 7.035156 -29.542969 C 7.035156 -19.894531 9.144531 -13.667969 14.671875 -7.636719 C 19.796875 -2.109375 27.632812 1.003906 35.070312 1.003906 C 47.226562 1.003906 58.179688 -6.734375 61.597656 -17.988281 C 62.804688 -21.804688 63.105469 -24.921875 63.105469 -29.242188 Z M 63.105469 -90.335938 "/></g></g></g><g fill="#ffffff" fill-opacity="1"><g transform="translate(122.197741, 185.010003)"><g><path d="M 62.601562 -36.277344 C 62.601562 -45.921875 60.492188 -52.152344 54.964844 -58.179688 C 49.839844 -63.707031 42.003906 -66.824219 34.566406 -66.824219 C 22.410156 -66.824219 11.457031 -59.085938 8.039062 -47.832031 C 6.832031 -44.011719 6.53125 -40.898438 6.53125 -36.578125 L 6.53125 -29.542969 C 6.53125 -19.894531 8.640625 -13.667969 14.167969 -7.636719 C 19.292969 -2.109375 27.132812 1.003906 34.566406 1.003906 C 46.726562 1.003906 57.679688 -6.734375 61.09375 -17.988281 C 62.300781 -21.804688 62.601562 -24.921875 62.601562 -29.242188 Z M 50.644531 -24.417969 C 50.644531 -14.769531 49.039062 -9.847656 45.921875 -6.332031 C 43.007812 -3.015625 39.289062 -1.105469 34.566406 -1.105469 C 29.441406 -1.105469 25.222656 -3.417969 22.609375 -7.035156 C 19.496094 -11.253906 18.488281 -15.777344 18.488281 -25.222656 L 18.488281 -41.398438 C 18.488281 -51.046875 20.097656 -55.96875 23.210938 -59.488281 C 26.125 -62.804688 29.84375 -64.714844 34.566406 -64.714844 C 39.691406 -64.714844 43.914062 -62.402344 46.523438 -58.785156 C 49.640625 -54.5625 50.644531 -50.042969 50.644531 -40.597656 Z M 50.644531 -24.417969 "/></g></g></g><g fill="#ffffff" fill-opacity="1"><g transform="translate(191.320229, 185.010003)"><g><path d="M 32.15625 0 L 32.15625 -2.109375 L 25.421875 -2.109375 L 25.421875 -92.445312 L 6.53125 -92.445312 L 6.53125 -90.335938 L 13.464844 -90.335938 L 13.464844 -2.109375 L 6.53125 -2.109375 L 6.53125 0 Z M 32.15625 0 "/></g></g></g><g fill="#ffffff" fill-opacity="1"><g transform="translate(223.972566, 185.010003)"><g><path d="M 56.574219 -25.824219 C 56.574219 -18.289062 56.472656 -12.460938 52.453125 -7.035156 C 50.34375 -4.21875 46.324219 -1.105469 40.597656 -1.105469 C 34.066406 -1.105469 27.433594 -5.425781 24.417969 -12.863281 L 24.417969 -41.398438 C 24.417969 -51.046875 26.027344 -55.96875 29.140625 -59.488281 C 32.054688 -62.804688 35.773438 -64.714844 40.496094 -64.714844 C 45.621094 -64.714844 49.839844 -62.402344 52.453125 -58.785156 C 55.570312 -54.5625 56.574219 -50.042969 56.574219 -40.597656 Z M 12.460938 24.519531 L 5.527344 24.519531 L 5.527344 26.628906 L 24.417969 26.628906 L 24.417969 -8.339844 C 27.53125 -3.015625 33.964844 1.003906 41.097656 1.003906 C 48.9375 1.003906 56.472656 -2.714844 61.296875 -8.140625 C 66.121094 -13.566406 68.53125 -20.5 68.53125 -29.242188 L 68.53125 -36.277344 C 68.53125 -45.921875 66.421875 -52.152344 60.894531 -58.179688 C 55.769531 -63.707031 47.933594 -66.824219 40.496094 -66.824219 C 28.335938 -66.824219 17.382812 -59.085938 13.96875 -47.832031 C 12.761719 -44.011719 12.460938 -40.898438 12.460938 -36.578125 Z M 12.460938 24.519531 "/></g></g></g><g fill="#ffffff" fill-opacity="1"><g transform="translate(299.525053, 185.010003)"><g><path d="M 76.269531 0 L 76.269531 -2.109375 L 69.535156 -2.109375 L 69.535156 -36.578125 C 69.535156 -45.320312 67.125 -52.253906 62.300781 -57.679688 C 57.476562 -63.105469 49.941406 -66.824219 42.105469 -66.824219 C 34.96875 -66.824219 28.539062 -62.804688 25.421875 -57.476562 L 25.421875 -92.445312 L 6.53125 -92.445312 L 6.53125 -90.335938 L 13.464844 -90.335938 L 13.464844 -2.109375 L 6.53125 -2.109375 L 6.53125 0 L 32.15625 0 L 32.15625 -2.109375 L 25.421875 -2.109375 L 25.421875 -52.957031 C 28.4375 -60.390625 35.070312 -64.714844 41.601562 -64.714844 C 47.328125 -64.714844 51.347656 -61.597656 53.457031 -58.785156 C 57.476562 -53.359375 57.578125 -47.53125 57.578125 -39.992188 L 57.578125 0 Z M 76.269531 0 "/></g></g></g><g fill="#ffffff" fill-opacity="1"><g transform="translate(380.80427, 185.010003)"><g><path d="M 5.527344 -65.917969 L 5.527344 -63.808594 L 12.257812 -63.808594 L 12.257812 -29.34375 C 12.257812 -20.597656 14.671875 -13.667969 19.496094 -8.238281 C 24.316406 -2.8125 31.855469 0.90625 39.691406 0.90625 C 46.828125 0.90625 53.257812 -3.113281 56.371094 -8.441406 L 56.371094 26.527344 L 75.265625 26.527344 L 75.265625 24.417969 L 68.332031 24.417969 L 68.332031 -65.917969 L 49.640625 -65.917969 L 49.640625 -63.808594 L 56.371094 -63.808594 L 56.371094 -12.960938 C 53.359375 -5.527344 46.726562 -1.207031 40.195312 -1.207031 C 34.464844 -1.207031 30.445312 -4.320312 28.335938 -7.132812 C 24.316406 -12.5625 24.21875 -18.390625 24.21875 -25.925781 L 24.21875 -65.917969 Z M 5.527344 -65.917969 "/></g></g></g></svg>